<svg fill="none" height="40" viewBox="0 0 94 40" width="94" xmlns="http://www.w3.org/2000/svg"><g fill="#fff"><path d="m2.78936 6.45549 8.74424 8.34721 1.288 1.0935h.7765v-15.028359h-2.4407v10.102459l-11.1574-10.320031v15.245931h2.78936z"/><path d="m24.6191.179993-8.484 15.716307h3.1626l5.3057-9.90853 5.3418 9.90853h3.1131l-7.0571-13.15551z"/><path d="m43.1759 11.2692-7.6115-11.1911548v15.8182548h2.7893v-6.56198l4.8586 7.04918 4.9042-7.1373v6.6501h2.6277l-.0509-15.8963z"/><path d="m62.4265 5.88241 5.3412 9.90849h3.1136l-7.0576-13.08119-1.3812-2.70971-8.4842 15.7909h3.1621z"/><path d="m12.2318 21.6912c-.9959-.9157-2.25185-1.5271-3.73719-1.8185-.6011-.1094-1.37149-.1654-2.28936-.1654l-5.970791-.0099-.01046 14.7629 5.934531-.001c.1426.008.288.0123.43601.0123.56101 0 1.16595-.0601 1.80175-.1785 1.54757-.2954 2.83731-.9069 3.83271-1.8162 1.427-1.2965 2.1499-3.1117 2.1499-5.3936.0004-2.2809-.7224-4.0952-2.1471-5.3921zm-1.8453 8.9113c-.98639.9022-2.41594 1.3467-4.13523 1.3467h-3.46211v-9.3927h3.43335l.05439.0289c.62151-.0523 1.205-.0521 1.55367-.0228.98639.0837 1.84621.4618 2.55503 1.1069.8496.7807 1.2803 1.9366 1.2803 3.4609 0 1.5112-.4422 2.7039-1.2794 3.4721z"/><path d="m43.1415 29.6283-7.5771-11.1619v15.8738h2.7893v-6.5893l4.5969 7.0338 4.6429-7.1223v6.6778h3.0857l-.0729-15.9298z"/><path d="m62.2712 18.7333-1.4701 2.5851-7.0153 13.0217h3.1639l5.3057-9.9085 5.3411 9.9085h3.1153l-7.0611-13.1112z"/><path d="m76.1843 19.4825h-2.7893v14.8576h2.7893z"/><path d="m90.4797 19.4826v9.8777l-10.9831-10.3194v15.2992h2.4407v-9.5052l8.8735 8.4025 1.3947 1.1027h1.0636v-14.8575z"/><path d="m24.4957 19.1821c-4.3535 0-7.8824 3.4571-7.8824 7.7212 0 4.2651 3.5289 7.7217 7.8824 7.7217 4.3532 0 7.8824-3.4566 7.8824-7.7217 0-4.2641-3.5292-7.7212-7.8824-7.7212zm0 12.7234c-2.82 0-5.1061-2.239-5.1061-5.0022 0-2.7625 2.2861-5.0019 5.1061-5.0019 2.8201 0 5.1063 2.2394 5.1063 5.0019 0 2.763-2.2862 5.0022-5.1063 5.0022z"/><path d="m24.4985 32.3688-.0027-5.4655-4.0047 3.6075-1.4158 1.2747-3.7628 3.3899 3.7867.2358-1.5428 3.446 2.6603 1.1428 1.5434-3.4458 2.7421 2.5697-.0026-4.8724zm-3.0794 2.5123-1.7151 3.8306-.8318-.3575 1.7151-3.8307-2.8772-.1789 2.072-1.8668 1.4229-1.2814 2.2939-2.0667.0012 3.1368.0009 1.9109.0017 2.6561z"/><path d="m23.5 32.2667-.0013-3.1368-2.2939 2.0666-1.4229 1.2813-2.0719 1.8668 2.8772.1789-1.7151 3.8307.8319.3573 1.7151-3.8304 2.0835 1.9525-.0018-2.6561z"/></g></svg>